<svg xmlns="http://www.w3.org/2000/svg" width="439.999" height="101.358" viewBox="0 0 439.999 101.358"><defs><style>.a{fill:#2c2724;}.b{fill:#1a1a1a;}</style></defs><g transform="translate(-11347.112 -10449.1)"><path class="a" d="M-289.788-52.06c9.734,0,15.985,3.586,18.905,8.146l.666-.154-.871-7.839a1.867,1.867,0,0,0-1.435-1.23A52.878,52.878,0,0,0-289.84-55.8c-19.11,0-31.048,6.865-31.048,19.213,0,13.833,14.448,20.135,31.253,20.135a58.894,58.894,0,0,0,13.013-1.691c2.254-.512,4.406-1.127,6.3-1.486,0-10.3.41-12.245.82-15.319-1.793.051-3.689.256-5.431.256-1.793,0-3.689-.2-5.482-.256.41,2.869.768,4.867.871,13.27a29.618,29.618,0,0,1-10.042,1.486c-11.989,0-19.725-6.455-19.725-16.395C-309.309-47.039-300.65-52.06-289.788-52.06Zm39.3,34.378c-.307-3.125-.717-7.122-.82-14.192h8.249c10.349,0,4.252,15.063,22.7,15.063,4.867,0,7.839-1.127,10.042-2.51l-.41-.717a9.3,9.3,0,0,1-5.021,1.281c-5.072-.051-6.66-5.533-9.837-10.4a15.3,15.3,0,0,0-2.92-3.433c7.48-1.332,10.452-4.509,10.452-10.657,0-8.607-5.789-11.374-21.775-11.374-2.818,0-10.81.256-13.321.256-2.869,0-6.2-.154-9.068-.256.41,3.586.82,5.841.82,18.239a171.02,171.02,0,0,1-.82,18.7c1.9-.1,3.945-.256,5.841-.256S-252.439-17.784-250.492-17.682Zm10.657-32.585c9.478,0,11.528,2.869,11.528,7.019s-2.049,7.019-11.528,7.019h-11.528c0-8.249.154-11.528.307-14.038Zm59.739-4.355c-1.178,0-3.381.256-5.328.256-1.844,0-4.611-.256-6.507-.256v.666c2.818.307,4.1.564,5.072,1.639-6.763,10.349-16.754,25.207-24.131,34.634a25.152,25.152,0,0,1,3.945-.256,25.9,25.9,0,0,1,4,.256c1.435-2.869,3.279-6.148,5.226-9.53h25.668c1.639,3.177,3.228,6.353,4.714,9.53,2.869-.154,4.611-.256,6.4-.256,1.742,0,3.535.1,6.4.256-8.812-12.757-13.68-21.518-20.955-34.122C-176.612-54.314-177.637-54.622-180.1-54.622Zm5.585,23h-20.647c3.638-5.943,7.531-11.989,10.708-16.907C-180.813-42.684-177.534-37.1-174.512-31.617Zm35.71,13.936c-.307-2.818-.666-6.763-.82-13.372h11.733c16.395,0,22.389-3.228,22.389-11.784s-5.994-11.784-22.389-11.784c-2.254,0-11.067.256-13.526.256-2.869,0-6.251-.154-9.12-.256.41,3.586.871,5.841.871,18.239a166.531,166.531,0,0,1-.871,18.7c1.9-.1,4-.256,5.892-.256S-140.7-17.784-138.8-17.682Zm10.913-32.585c8.3,0,11.271,2.562,11.271,7.429,0,4.816-2.972,7.378-11.271,7.378h-11.733c0-8.659.1-12.142.256-14.807Zm65.221-4.355c-15.217,0-20.033.256-24.285.256-4.3,0-9.581-.154-13.884-.256.359,3.586.82,5.841.82,18.239a185.889,185.889,0,0,1-.82,18.7c4.252-.1,9.427-.256,13.68-.256,4.56,0,9.325.256,23.721.256,1.127,0,1.281-.051,1.742-.973l3.484-7.173-.666-.307c-3.381,3.586-6.1,4.1-11.272,4.1H-89.361c-.051-4.15-.307-8.249-.307-12.4h12.552c2.408,0,7.788.154,9.734.666a18.96,18.96,0,0,1-.154-2.818,19.276,19.276,0,0,1,.154-2.869,64.588,64.588,0,0,1-9.734.666H-89.668c0-3.791.256-7.685.307-11.476H-68.1c3.074,0,5.789.461,6.968,2.459l.615-.2-1.23-5.841C-61.9-54.417-62.1-54.622-62.668-54.622ZM-25.933-27.57A276.831,276.831,0,0,1-42.481-54.622c-2.818.2-4.765.256-6.763.256s-3.945-.051-6.763-.256C-46.785-43.248-36.743-27.98-29.468-16.5h.769C-19.785-29.158-10.562-41.967-.777-54.622a21.105,21.105,0,0,1-3.586.256,20.667,20.667,0,0,1-3.586-.256C-13.483-45.758-20.553-34.9-25.933-27.57Zm41.346,9.888a171.025,171.025,0,0,1-.82-18.7c0-12.4.41-14.653.82-18.239-1.9.1-3.945.256-5.841.256s-4-.154-5.892-.256c.461,3.586.871,5.841.871,18.239a166.537,166.537,0,0,1-.871,18.7c1.9-.1,4-.256,5.892-.256S13.518-17.784,15.413-17.682ZM24.072-55.8h-.82c.41,5.738.717,13.936.717,21.723A162.989,162.989,0,0,1,23.3-17.682a20.616,20.616,0,0,1,3.228-.256,21.139,21.139,0,0,1,3.228.256A147.888,147.888,0,0,1,28.99-33.1q0-3.689.154-7.07c4.048,2.306,9.376,5.585,16.5,9.376C54.2-25.777,64.6-18.553,67.621-16.5h.666c-.41-6.046-.615-12.04-.615-17.829a196.569,196.569,0,0,1,.973-20.289,15.261,15.261,0,0,1-3.228.256,15.261,15.261,0,0,1-3.228-.256c.512,5.431.666,9.325.666,12.86,0,3.381-.154,6.4-.256,9.991-3.279-1.844-7.275-4.252-12.962-7.326C38.878-45.3,27.146-53.546,24.123-55.646Zm90.582,1.178c-15.217,0-20.033.256-24.285.256-4.3,0-9.581-.154-13.884-.256.359,3.586.82,5.841.82,18.239a185.883,185.883,0,0,1-.82,18.7c4.252-.1,9.427-.256,13.68-.256,4.56,0,9.325.256,23.721.256,1.127,0,1.281-.051,1.742-.973l3.484-7.173-.666-.307c-3.381,3.586-6.1,4.1-11.272,4.1H87.961c-.051-4.15-.307-8.249-.307-12.4h12.552c2.408,0,7.788.154,9.734.666a18.959,18.959,0,0,1-.154-2.818,19.275,19.275,0,0,1,.154-2.869,64.588,64.588,0,0,1-9.734.666H87.653c0-3.791.256-7.685.307-11.476h21.262c3.074,0,5.789.461,6.968,2.459l.615-.2-1.23-5.841C115.422-54.417,115.217-54.622,114.654-54.622Z" transform="translate(11668 10504.9)"/><path class="b" d="M3.334,32.407c2.022,0,4.044-1.366,5.957-3.662a16.286,16.286,0,0,0,3.334-5.793,26.22,26.22,0,0,1-3.662,5.41c-1.8,2.131-3.607,3.115-4.7,3.115a1.19,1.19,0,0,1-1.312-1.257c0-1.694,1.093-3.662,3.88-7.76,2.514-3.716,4.153-6.066,4.153-8.361a2.307,2.307,0,0,0-2.569-2.4c-2.678,0-5.3,2.842-6.011,5.356,1.366-2.35,3.06-3.989,4.427-3.989.437,0,.656.328.656.765,0,1.476-1.421,3.552-3.5,6.394C1.366,23.718,0,26.669,0,29.019A3.039,3.039,0,0,0,3.334,32.407ZM9.127,6.339a2.037,2.037,0,0,0,2.022,2.4A2.782,2.782,0,0,0,13.881,6.23a2.09,2.09,0,0,0-2.022-2.4A2.9,2.9,0,0,0,9.127,6.339Zm6.285,25.139a1.4,1.4,0,0,1-1.53-1.585,8.341,8.341,0,0,1,.929-3.279,83.994,83.994,0,0,1,4.918-8.963C23.39,11.586,29.62,2.732,31.751,0c-.71,0-1.858,2.35-3.17,2.35H27.216c-1.148,0-1.967.874-3.607,3.115-1.694,2.35-4.536,6.613-5.848,8.689-2.9,4.481-7,11.039-7,14.919a3.172,3.172,0,0,0,3.5,3.334c2.4,0,4.481-1.366,6.613-3.88A15.958,15.958,0,0,0,24.1,22.953,27.324,27.324,0,0,1,20.494,28.2C18.417,30.658,16.614,31.478,15.411,31.478Zm11.149,0a1.4,1.4,0,0,1-1.53-1.585,8.341,8.341,0,0,1,.929-3.279,83.993,83.993,0,0,1,4.918-8.963C34.539,11.586,40.769,2.732,42.9,0c-.71,0-1.858,2.35-3.17,2.35H38.364c-1.148,0-1.967.874-3.607,3.115-1.694,2.35-4.536,6.613-5.848,8.689-2.9,4.481-7,11.039-7,14.919a3.172,3.172,0,0,0,3.5,3.334c2.4,0,4.481-1.366,6.613-3.88a15.958,15.958,0,0,0,3.224-5.574A27.325,27.325,0,0,1,31.642,28.2C29.566,30.658,27.762,31.478,26.56,31.478Zm20.6.929c2.3,0,4.317-1.639,6.175-3.716a15.413,15.413,0,0,0,3.334-5.738,25.211,25.211,0,0,1-3.825,5.465c-1.639,1.858-3.388,3.006-4.7,3.006a1.176,1.176,0,0,1-1.257-1.257,8.319,8.319,0,0,1,1.257-3.552,164.38,164.38,0,0,1,9.072-14.428c-.6-.164-1.476,1.858-3.006,1.913a7.719,7.719,0,0,1-2.623-.219c.109-1.749-1.312-2.4-2.787-2.4-4.044,0-8.525,2.623-12.242,7.05A15.981,15.981,0,0,0,32.517,28.2c0,2.787,1.53,4.1,3.716,4.1,2.131,0,3.935-1.421,5.52-3.006a38.1,38.1,0,0,0,2.842-3.5c.164-.219.273-.055.164.109a8.078,8.078,0,0,0-.874,3.334A2.936,2.936,0,0,0,47.163,32.407Zm3.88-17.761c-.273.546-1.8,3.06-2.569,4.317-2.514,3.989-4.427,7.1-7,9.728-1.421,1.53-3.115,2.787-4.427,2.787-.874,0-1.421-.6-1.421-1.639,0-2.732,2.3-6.558,3.989-9.127,1.967-3.006,6.449-8.635,9.782-8.635C50.442,12.078,51.316,12.9,51.043,14.646Zm22.3-.765c.109-1.694-1.257-2.4-2.732-2.4-3.989-.055-8.58,2.623-12.3,7.05A15.981,15.981,0,0,0,54.267,28.2c0,2.787,1.53,4.1,3.716,4.1,2.131,0,3.935-1.421,5.52-3.006a38.1,38.1,0,0,0,2.842-3.5c.164-.219.273-.055.164.109-1.694,3.06-4.481,7.87-6.121,10.547-4.044,6.5-6.613,6.941-7.924,6.941-1.53,0-2.35-.6-2.35-2.022a3.121,3.121,0,0,1,2.35-2.951,3.542,3.542,0,0,0-1.53-.328c-2.022,0-3.771,1.2-3.825,3.006,0,2.131,2.4,2.787,4.973,2.787a11.957,11.957,0,0,0,7.268-2.732,28.852,28.852,0,0,0,7-8.252c2.241-3.607,4.317-7.6,6.667-11.64a104.856,104.856,0,0,1,5.848-9.072c-.546-.219-1.585,1.858-3.006,1.913A6.291,6.291,0,0,1,73.34,13.881Zm-.546.765c-.328.6-1.749,3.006-2.569,4.317-2.514,4.044-4.427,7.1-7,9.728-1.421,1.53-3.115,2.787-4.427,2.787-.874,0-1.421-.6-1.421-1.639,0-2.732,2.3-6.558,3.989-9.127,1.967-2.951,6.449-8.635,9.782-8.635C72.192,12.078,73.067,12.952,72.793,14.646Zm19.346-1.421c0,2.35-3.279,6.941-7.1,6.886a3.961,3.961,0,0,1-2.678-1.093,28.2,28.2,0,0,1,2.951-3.552c1.639-1.639,3.716-3.5,5.629-3.5A1.134,1.134,0,0,1,92.139,13.225ZM80.28,31.751a2.218,2.218,0,0,1-2.4-2.514c0-2.186,1.476-5.957,4.263-9.946a4.067,4.067,0,0,0,3.443,1.366c4.809,0,8.525-2.842,8.525-6.449,0-1.694-1.366-2.787-3.5-2.787-3.06,0-7.432,1.585-11.2,5.629-3.334,3.552-4.864,7.87-4.864,10.657,0,3.279,2.131,4.645,5.028,4.645a10.193,10.193,0,0,0,6.941-3.006,8.531,8.531,0,0,0,2.842-5.574,2.2,2.2,0,0,0-.328-1.148c.328,1.858-1.858,4.864-3.006,6.066C84.106,30.6,81.975,31.751,80.28,31.751Z" transform="matrix(0.998, -0.07, 0.07, 0.998, 11534.675, 10504.732)"/><path class="b" d="M44.485,27.653C54.855,14.728,63.722,2.705,74.918,2.705c3.757,0,6.237,2.029,6.237,5.485a2.693,2.693,0,0,0,.751-2.029C81.981,2.63,79.126,0,74.392,0,61.467,0,49.97,17.208,42.832,26.9,32.838,40.5,23.294,48.993,14.954,52.3c-.225.075-.3-.075-.075-.225,6.162-3.381,10.37-13.826,13.9-25.248,2.555-8.266,4.734-13.451,7.665-17.884a9.672,9.672,0,0,1,4.884-3.983c1.728-.225,4.659-.676,4.809-2.329a.633.633,0,0,0-.3-.526,5.4,5.4,0,0,1-3.983,1.728C36.82,3.832,28.554,0,20.289,0A23.819,23.819,0,0,0,7.063,3.983C3.006,6.763,0,9.543,0,13.526a3.933,3.933,0,0,0,4.208,4.058,4.636,4.636,0,0,0,4.058-2.029,4.739,4.739,0,0,1-2.029.15,3.541,3.541,0,0,1-3.231-3.757A8.562,8.562,0,0,1,7.139,4.734,17.355,17.355,0,0,1,16.757,2.1C25.7,2.1,32.913,5.11,39.676,5.035c-8.566,1.879-14.878,12.85-18.41,26.6C16.306,51.4,14.127,52.15,11.422,53.051a14.48,14.48,0,0,1-1.8.075c-.526.075-.977.225-.977.751s.676.676,2.63.225C23.971,51.4,36.745,37.346,44.485,27.653Z" transform="matrix(0.998, -0.07, 0.07, 0.998, 11485.12, 10496.221)"/></g></svg>