<svg xmlns="http://www.w3.org/2000/svg" width="433.207" height="64.334" viewBox="0 0 433.207 64.334"><path d="M1265.446,158.259c.522-2.612-.522-3.135-2.025-3.135h-2.286c-.522,0-.588-.2-.456-.653l.26-1.372c.065-.393.2-.523.718-.523.98,0,3.266.2,9.472.2,5.747,0,7.315-.2,8.229-.2.457,0,.653.2.586.784l-.2,1.241c-.065.392-.195.522-.588.522h-1.045c-1.567,0-2.874.523-3.264,2.221l-2.287,10.058a1.915,1.915,0,0,1-1.306,1.5,36.7,36.7,0,0,1-13.456,2.874c-12.734,0-19.985-8.1-19.985-17.569a27.9,27.9,0,0,1,27.954-28.15,17.728,17.728,0,0,1,10.647,3.266,2.506,2.506,0,0,0,1.372.653c.522,0,.979-.588,1.763-2.025a.527.527,0,0,1,.717-.261l.98.261c.261.065.458.2.393.522l-3.723,13.129c-.067.325-.263.391-.589.391l-1.7-.065c-.327,0-.458-.2-.458-.718.261-5.617-1.893-12.278-10.384-12.278-8.557,0-17.308,12.017-17.308,25.8,0,9.8,6.074,13.911,10.058,13.911,2.482,0,4.311-.261,5.094-.718a3.11,3.11,0,0,0,1.306-2.286Z" transform="translate(-1237.818 -126.059)"/><path d="M1275.528,167.364c-.457,0-.718-.261-.589-.588l3.135-10.58c1.111-3.657,3.135-10.123,3.135-11.365a1.175,1.175,0,0,0-1.11-1.241c-1.045,0-3.4,2.156-4.309,3.592-.261.393-.522.458-.783.261l-.655-.456c-.195-.131-.195-.328,0-.784,1.045-1.9,4.768-6.727,10.451-6.727,2.547,0,3.4,1.37,3.4,2.612,0,1.174-1.242,4.376-2.809,8.621l.719.391c1.633-3.591,5.552-11.624,10.319-11.624A3.636,3.636,0,0,1,1300.15,143c0,2.287-1.764,4.246-2.939,4.246a3.772,3.772,0,0,1-2.154-.522,3.141,3.141,0,0,0-1.83-.784c-2.025,0-5.551,5.158-6.988,8.49-.653,1.567-1.373,3.462-2.155,5.878l-2.09,6.6a.829.829,0,0,1-.85.457Z" transform="translate(-1228.504 -122.624)"/><path d="M1322.018,139.215c.457,0,.653.328.522.784-.98,2.808-4.115,11.429-4.637,13.586-.261,1.11-2.547,8.425-2.547,9.4a.693.693,0,0,0,.784.784c1.045,0,3.135-3,3.657-3.657.328-.392.457-.392.653-.261l.784.523c.2.131.131.392-.064.849-.655,1.306-4.247,6.858-10.321,6.858-1.961,0-2.678-1.045-2.678-2.09,0-.849.326-2.025,2.547-8.49l-.588-.327c-2.547,3.919-6.858,10.907-13,10.907-1.763,0-4.508-2.482-4.508-5.094,0-8.229,8.1-23.447,17.439-23.447a5.879,5.879,0,0,1,5.093,2.285l1.045-1.894a1.322,1.322,0,0,1,1.177-.718Zm-20.051,23.579c1.764,0,7.837-8.556,9.078-11.234a15.816,15.816,0,0,0,1.5-6.27,3.268,3.268,0,0,0-2.873-2.94c-1.567,0-3.2,1.373-4.9,4.442-3.267,5.813-4.377,10.842-4.377,14.042C1300.4,162.271,1300.921,162.794,1301.967,162.794Z" transform="translate(-1223.788 -122.691)"/><path d="M1340.347,132.95a.927.927,0,0,1,.392-.131.3.3,0,0,1,.326.261,2.608,2.608,0,0,1-.2.522l-3.527,7.707a11.7,11.7,0,0,1,2.155-.129c6.27,0,9.927,3.787,9.927,9.144,0,4.9-2.09,9.535-8.033,13.846a30.581,30.581,0,0,1-13.847,4.9l-4.18,12.8c-1.109,3.4-.587,4.441,1.828,4.441h1.829a.39.39,0,0,1,.393.522l-.393,1.437c-.064.2-.261.392-.784.392-.718,0-2.676-.2-8.164-.2-6.074,0-7.837.2-8.556.2-.392,0-.523-.131-.456-.522l.325-1.306c.065-.261.2-.522.522-.522h1.5c2.025,0,3.657-1.437,4.965-5.16l12.017-34.747a15.721,15.721,0,0,0-7.315,5.029.472.472,0,0,1-.718.131l-.654-.589c-.261-.195-.129-.522,0-.717a21.394,21.394,0,0,1,10.059-7.708l1.959-6.662c.13-.457.392-.718,1.176-.849Zm-11.887,33.7c5.355-.849,13.389-6.531,13.389-14.631,0-5.682-2.155-7.444-3.984-7.444a8.422,8.422,0,0,0-1.7.129Z" transform="translate(-1219.585 -124.329)"/><path d="M1362.948,160.833a.447.447,0,0,1,.131.653c-1.176,2.351-6.074,6.531-12.475,6.531-4.441,0-7.641-2.678-7.641-7.315a22.456,22.456,0,0,1,7.9-16.656c3.2-2.742,7.054-4.571,10.907-4.571,3.592,0,5.094,2.023,5.094,4.505,0,3.659-2.155,6.335-5.942,8.492a23.311,23.311,0,0,1-9.6,2.874,13.238,13.238,0,0,0-.523,4.115c0,2.286,1.306,4.245,3.527,4.245a9.613,9.613,0,0,0,7.054-3.4c.131-.2.326-.327.522-.2Zm-5.158-10.516a8.057,8.057,0,0,0,2.09-5.354c0-1.045-.262-2.222-1.765-2.222-2.482,0-5.292,5.945-6.27,10.19A9.906,9.906,0,0,0,1357.79,150.316Z" transform="translate(-1210.903 -122.624)"/><path d="M1373.5,165.927c-.98-.914-1.568-2.874-1.568-5.421a18.237,18.237,0,0,1,1.633-7.25c1.829-4.18,5.356-7.837,7.054-9.8l-.391-.457c-1.438,1.438-3.92,2.09-6.336,2.09h-3.2c-2.678,0-3.527.784-3.592,1.9.065.849,1.5,1.567,2.09,1.894a3.43,3.43,0,0,1,1.437,2.939c0,1.7-.784,2.678-2.874,2.678-1.763,0-3.528-1.7-3.528-5.094a11.2,11.2,0,0,1,2.548-6.467c1.306-1.437,2.742-3.135,7.446-3.135a80.871,80.871,0,0,0,9.471-.325c.848,0,1.5.391.913,1.306-3.592,5.682-5.42,8.1-5.42,15.871,0,4.311,1.762,6.4,3.395,6.4a6.151,6.151,0,0,0,5.487-2.612c2.678-3.853,3.266-6.6,3.266-11.234.2-2.287-.261-3.332-.981-3.984a4.591,4.591,0,0,1-.913-2.418,4.126,4.126,0,0,1,4.376-3.33c2.482,0,3.527,2.742,3.527,5.551,0,4.311-.784,7.054-4.7,13.389-3.2,5.225-8.229,9.6-14.37,9.6A6.513,6.513,0,0,1,1373.5,165.927Z" transform="translate(-1205.459 -122.624)"/><path d="M1408.477,163.54c.2.2.261.327.067.653a15.321,15.321,0,0,1-12.737,6.792c-1.96,0-2.547-.98-2.547-1.959,0-1.176,1.109-4.18,3.853-12.148l1.762-5.161a13.841,13.841,0,0,0,.981-3.657.788.788,0,0,0-.849-.849c-1.045,0-3.984,3.332-4.768,4.377-.261.261-.523.261-.719.065l-.588-.588c-.2-.2-.328-.457-.2-.588.325-.392,5.552-8.033,12.54-8.033,2.025,0,2.874,1.045,2.874,2.351,0,1.436-.784,3.4-2.09,7.183l-3.528,9.994a13.4,13.4,0,0,0-1.045,3.984.8.8,0,0,0,.85.914c1.306,0,4.441-3.461,4.833-4.049a.345.345,0,0,1,.523-.065Zm1.959-32a4.719,4.719,0,0,1-4.506,4.311c-2.547,0-4.18-1.5-4.18-3.984a4.145,4.145,0,0,1,4.049-3.984C1408.934,127.879,1410.436,129.512,1410.436,131.536Z" transform="translate(-1198.175 -125.593)"/><path d="M1408.348,167.364c-.457,0-.718-.327-.588-.718l4.508-12.54c1.5-4.115,2.939-8.425,2.939-9.209,0-.654-.327-1.046-.849-1.046-.98,0-3.528,2.547-4.377,3.528a.44.44,0,0,1-.653.064l-.653-.717c-.261-.2-.261-.392-.064-.653.978-1.306,5.093-6.6,11.887-6.6a2.467,2.467,0,0,1,2.613,2.546c0,.914-1.372,4.442-3.135,8.492l.586.457c1.961-2.874,7.382-11.495,13.847-11.495a4.307,4.307,0,0,1,4.18,4.375c0,1.438-.914,4.181-3.788,12.214-1.567,4.441-2.09,5.878-2.09,6.662s.327,1.11.849,1.11c.784,0,2.939-2.025,3.592-2.808.2-.261.457-.2.653,0l.589.522a.534.534,0,0,1,.064.784c-.784,1.045-4.768,5.682-10.972,5.682a2.3,2.3,0,0,1-2.612-2.482c0-1.176,1.371-5.094,3.4-10.842,1.045-3,2.612-7.38,2.612-8.557,0-1.045-.522-1.436-1.306-1.436-1.5,0-6.335,5.225-8.948,9.47a42.136,42.136,0,0,0-3.2,5.486l-2.546,7.315c-.132.261-.262.392-.98.392Z" transform="translate(-1194.324 -122.624)"/><path d="M1455.351,160.833a.447.447,0,0,1,.131.653c-1.176,2.351-6.074,6.531-12.475,6.531-4.442,0-7.642-2.678-7.642-7.315a22.456,22.456,0,0,1,7.9-16.656c3.2-2.742,7.055-4.571,10.908-4.571,3.592,0,5.094,2.023,5.094,4.505,0,3.659-2.154,6.335-5.943,8.492a23.3,23.3,0,0,1-9.6,2.874,13.234,13.234,0,0,0-.524,4.115c0,2.286,1.307,4.245,3.528,4.245a9.615,9.615,0,0,0,7.054-3.4c.131-.2.326-.327.522-.2Zm-5.16-10.516a8.056,8.056,0,0,0,2.09-5.354c0-1.045-.261-2.222-1.764-2.222-2.482,0-5.29,5.945-6.27,10.19A9.9,9.9,0,0,0,1450.191,150.316Z" transform="translate(-1187.249 -122.624)"/><path d="M1496.814,139.774a.456.456,0,0,1-.523.392l-1.437-.065c-.457,0-.522-.2-.522-.588.2-2.612-.523-10.189-6.989-10.189-3.657,0-5.422,3.4-5.422,5.747,0,4.441,3.005,6.532,6.01,9.6,3,3,7.445,6.663,7.445,14.239,0,8.229-6.075,12.866-13.781,12.866a11.9,11.9,0,0,1-9.014-4.572,1.176,1.176,0,0,0-1.762-.261,14.558,14.558,0,0,0-1.7,2.482c-.129.261-.261.392-.652.2l-.849-.327c-.328-.131-.393-.2-.262-.653l4.833-14.238c.132-.327.327-.327.588-.261l1.438.261c.2.065.325.261.261.652-1.177,9.014,3.2,13.455,7.315,13.455a6.243,6.243,0,0,0,6.464-6.335c0-3.919-3.2-6.466-6.074-9.6-4.048-4.441-7.706-7.9-7.706-15.023,0-4.7,3.723-11.495,13.062-11.495,3.592,0,6.662,2.221,7.707,2.939a1.459,1.459,0,0,0,.914.2c.392,0,.784-.784,1.045-2.155.065-.2.2-.261.653-.2l.849.065c.392.065.522.2.457.457Z" transform="translate(-1179.076 -126.059)"/><path d="M1505.615,152.157l.588.456c2.94-4.7,7.251-9.8,11.953-9.8,4.833,0,5.813,3.787,5.813,6.922a31.235,31.235,0,0,1-4.18,14.3c-3.136,5.356-6.923,8.752-11.625,8.752a3.857,3.857,0,0,1-4.116-4.18,3.009,3.009,0,0,1,2.873-3.331,2.54,2.54,0,0,1,2.613,2.417c.067,1.306.261,2.351,1.242,2.351,1.437,0,2.482-3.984,3.527-7.641s2.155-8.425,2.155-11.888c0-1.829-.588-2.808-1.959-2.808-2.351,0-6.466,5.1-8.3,7.511a28.414,28.414,0,0,0-3.33,5.879l-3.723,9.144a1.2,1.2,0,0,1-1.111.457h-5.225c-.588,0-.849-.327-.653-.784l13.586-36.51a12.041,12.041,0,0,0,.913-3.4c0-.718-.784-1.241-2.025-1.241h-1.827c-.328,0-.457-.2-.392-.522l.325-1.306c.132-.327.2-.522.72-.522h11.756a.694.694,0,0,1,.784.653,6.354,6.354,0,0,1-.718,2.286Z" transform="translate(-1172.726 -125.966)"/><path d="M1519.916,158.024c0-5.29,1.5-10.776,5.16-14.762a12.132,12.132,0,0,1,9.341-3.787c3.527,0,9.209,1.632,9.209,9.6,0,3.853-1.371,10.776-5.486,15.152-2.548,2.743-5.422,3.788-9.6,3.788C1524.75,168.017,1519.916,165.4,1519.916,158.024Zm14.434-.261c2.026-3.788,3.985-9.339,3.985-11.756,0-1.567-.653-2.81-2.418-2.81-2.48,0-4.375,2.287-7.315,7.577a23.254,23.254,0,0,0-3.266,10.58c0,1.306.784,2.874,2.287,2.874C1529.582,164.229,1531.672,162.857,1534.35,157.763Z" transform="translate(-1165.605 -122.624)"/><path d="M1564.1,132.95a.924.924,0,0,1,.391-.131.3.3,0,0,1,.328.261,2.77,2.77,0,0,1-.2.522l-3.528,7.707a11.712,11.712,0,0,1,2.156-.129c6.27,0,9.927,3.787,9.927,9.144,0,4.9-2.09,9.535-8.033,13.846a30.581,30.581,0,0,1-13.847,4.9l-4.18,12.8c-1.11,3.4-.588,4.441,1.829,4.441h1.829a.39.39,0,0,1,.392.522l-.392,1.437c-.064.2-.261.392-.784.392-.718,0-2.679-.2-8.164-.2-6.075,0-7.837.2-8.556.2-.393,0-.523-.131-.457-.522l.325-1.306c.065-.261.2-.522.523-.522h1.5c2.025,0,3.657-1.437,4.964-5.16l12.017-34.747a15.724,15.724,0,0,0-7.315,5.029.472.472,0,0,1-.718.131l-.653-.589c-.261-.195-.131-.522,0-.717a21.382,21.382,0,0,1,10.058-7.708l1.959-6.662c.131-.457.392-.718,1.176-.849Zm-11.888,33.7c5.357-.849,13.389-6.531,13.389-14.631,0-5.682-2.155-7.444-3.984-7.444a8.414,8.414,0,0,0-1.7.129Z" transform="translate(-1162.307 -124.329)"/><path d="M1565.363,164.1c0-2.025,1.242-3.2,2.81-3.2,1.7,0,2.742,1.176,3.527,3.07a2.211,2.211,0,0,0,1.763,1.633c1.894,0,3-1.372,3.07-4.376.065-2.09-1.371-3.266-3.07-6.2-1.894-3.2-2.743-4.311-2.743-6.794,0-4.506,3.657-8.75,10.842-8.75,2.613,0,5.617.978,5.617,3.983,0,1.961-1.045,3.267-2.938,3.267-1.373,0-2.612-.653-2.875-2.744-.131-.914-.653-1.959-1.569-1.959-1.3,0-2.35.392-2.35,3.592,0,2.351,2.286,5.1,3.4,6.4a8.844,8.844,0,0,1,2.417,6.662c0,5.16-3.854,9.339-10.907,9.339C1567.65,168.017,1565.363,166.384,1565.363,164.1Z" transform="translate(-1153.971 -122.624)"/></svg>