<svg xmlns="http://www.w3.org/2000/svg" width="104.668" height="87.248" viewBox="0 0 104.668 87.248"><defs><style>.a{opacity:0.996;}.b{fill:#085937;}.c{fill:#63bb3a;}</style></defs><g class="a" transform="translate(-410 -329.697)"><g transform="translate(411.449 331.146)"><path class="b" d="M93.755,20.358c.008-.078.025-.16.029-.238.008-.328.02-.66.02-.988,0-2.262,0-4.524.008-6.786q.024-4.211.074-8.417c0-.529.025-1.057.057-1.586A2.332,2.332,0,0,1,95.621.261a2.29,2.29,0,0,1,1.406.016c.341.115.677.254,1.009.393q.9.381,1.784.787a4.671,4.671,0,0,1,.755.418,2.016,2.016,0,0,1,.848,1.393,4.442,4.442,0,0,1,.053.811q-.068,3.092-.156,6.18c-.045,1.574-.11,3.147-.143,4.721-.049,2.2-.074,4.41-.119,6.61q-.056,2.637-.127,5.278c-.029,1.074-.066,2.147-.095,3.217-.041,1.459-.074,2.918-.119,4.377s-.1,2.918-.143,4.377c-.012.4-.021.8-.033,1.2a4.545,4.545,0,0,1-.152,1.1,2.272,2.272,0,0,1-.406.8,1.867,1.867,0,0,1-1.062.7,7.287,7.287,0,0,1-2.1.23,3.328,3.328,0,0,1-1.521-.459,1.981,1.981,0,0,1-.857-.938c-.349-.8-.71-1.6-1.058-2.4q-3.027-6.959-5.848-13.991a1.149,1.149,0,0,0-.23-.443.63.63,0,0,0-.074.156c-.008.127-.008.258,0,.385.049,2.348.09,4.692.144,7.04.033,1.389.09,2.774.135,4.164.041,1.3.082,2.6.119,3.905a2.866,2.866,0,0,1-.086.893,1.912,1.912,0,0,1-.554.906,2.534,2.534,0,0,1-1.841.725c-.779-.025-1.562-.02-2.341-.029-.115,0-.23-.008-.349-.012A2.384,2.384,0,0,1,80.17,40.5c0-.057,0-.115,0-.172-.037-1.459-.061-2.918-.111-4.377-.061-1.774-.148-3.545-.221-5.319-.037-.873-.07-1.746-.111-2.619-.045-1-.1-2-.144-3-.033-.684-.066-1.373-.094-2.057-.041-.914-.078-1.832-.115-2.746q-.068-1.543-.131-3.09c-.012-.27-.016-.545-.025-.816-.066-2.033-.119-4.061-.2-6.094-.066-1.66-.164-3.315-.254-4.975a2.361,2.361,0,0,1,.55-1.631,2.343,2.343,0,0,1,.8-.643c.968-.488,1.927-.984,2.9-1.467a2.715,2.715,0,0,1,2.186-.176,2.213,2.213,0,0,1,1.419,1.344c1.091,2.787,2.206,5.565,3.309,8.348.242.611.459,1.233.7,1.848.382.959.788,1.906,1.169,2.865.508,1.279,1,2.561,1.5,3.84A1.566,1.566,0,0,0,93.755,20.358Z" transform="translate(-40.309 -0.158)"/><path class="b" d="M84.537,115.726c-.008.188-.021.344-.016.5q.018,1.973.041,3.951.062,4.807.123,9.614a3.315,3.315,0,0,1-.119,1.061,2.3,2.3,0,0,1-2.112,1.639,5.035,5.035,0,0,1-.824-.028c-.66-.086-1.312-.221-1.972-.291a2.52,2.52,0,0,1-2.108-2.385c-.021-.643,0-1.287-.02-1.931-.037-1.4-.09-2.8-.127-4.2-.029-1.143-.045-2.291-.066-3.434-.049-2.8-.094-5.61-.152-8.413-.033-1.643-.09-3.291-.135-4.934-.045-1.66-.074-3.32-.123-4.979-.07-2.275-.148-4.549-.221-6.823a5.315,5.315,0,0,1,.045-1.2,2.3,2.3,0,0,1,2.227-1.93c.664-.012,1.329-.008,2,.008a2.718,2.718,0,0,1,.6.094,1.868,1.868,0,0,1,1.275,1.012c.2.4.381.8.566,1.2,1.907,4.246,3.711,8.536,5.532,12.819.324.762.615,1.541.935,2.311.152.369.328.729.5,1.094a1.5,1.5,0,0,0,.106.164c.119-.032.1-.119.1-.18.021-.615.041-1.229.049-1.844q.068-5.3.127-10.6c.017-1.16.045-2.32.078-3.475.008-.287.045-.57.07-.856a1.479,1.479,0,0,1,.508-1.012,2.541,2.541,0,0,1,1.755-.729c.926,0,1.853,0,2.776,0a2.146,2.146,0,0,1,.845.168,2.119,2.119,0,0,1,1.332,1.672,3.633,3.633,0,0,1,.05.6c0,2.532.02,5.065,0,7.6-.028,3.619-.09,7.242-.135,10.86q-.061,5.108-.123,10.217c-.033,2.348-.078,4.692-.111,7.04a2.814,2.814,0,0,1-.213,1.131,2.3,2.3,0,0,1-.976,1.118,1.8,1.8,0,0,1-.779.242c-.652.037-1.3.07-1.952.1a4.512,4.512,0,0,1-.476-.012,1.808,1.808,0,0,1-1.48-.84,4.478,4.478,0,0,1-.324-.607c-2.03-4.365-3.936-8.782-5.884-13.183-.3-.668-.586-1.34-.886-2C84.77,115.927,84.754,115.779,84.537,115.726Z" transform="translate(-39.258 -46.895)"/><path class="b" d="M127.688,34.154c.017-2.024.078-3.594.234-5.164a20.311,20.311,0,0,1,.775-3.951c.266-.861.488-1.738.775-2.59a14.731,14.731,0,0,1,3.629-5.881,9.659,9.659,0,0,1,5.24-2.66,10.526,10.526,0,0,1,1.9-.172,9.265,9.265,0,0,1,4.019.922,12.976,12.976,0,0,1,2.518,1.594,7.021,7.021,0,0,1,2.629,4.639,7.261,7.261,0,0,1-.008,1.885c-.131,1.135-.263,2.274-.4,3.41a2.68,2.68,0,0,1-.1.5,1.513,1.513,0,0,1-1.119,1.09,3.584,3.584,0,0,1-.554.111,1.793,1.793,0,0,1-1.559-.594c-.27-.3-.533-.6-.8-.906a9.865,9.865,0,0,0-1.693-1.533,5.892,5.892,0,0,0-2.407-1.029,3.337,3.337,0,0,0-1.21,0,2.589,2.589,0,0,0-1.456.877,6.2,6.2,0,0,0-1.083,1.848,12.237,12.237,0,0,0-.615,2.406,34.742,34.742,0,0,0-.369,3.8,28.638,28.638,0,0,0,.029,3.3,11.092,11.092,0,0,0,.98,3.934,5.063,5.063,0,0,0,.623,1.029,2.338,2.338,0,0,0,.906.713c.2.086.394.176.6.254s.328.008.357-.225c.028-.213.045-.426.066-.639.07-.7.135-1.393.2-2.094.033-.328.078-.652.119-.979.008-.057.025-.111.028-.168.045-.422.1-.549-.43-.729a1.882,1.882,0,0,1-1.239-1.234,2.3,2.3,0,0,1-.1-.975c.094-.984.222-1.963.242-2.951a2.4,2.4,0,0,1,.115-.676,1.967,1.967,0,0,1,1.726-1.422,4.653,4.653,0,0,1,1.169.029c.763.078,1.525.164,2.288.238.951.09,1.9.164,2.85.262a2.215,2.215,0,0,1,1.932,2.315c-.028.414-.094.824-.135,1.238-.086.824-.164,1.652-.25,2.475q-.154,1.537-.312,3.074c-.095.9-.189,1.791-.3,2.688-.164,1.393-.341,2.783-.5,4.176a1.078,1.078,0,0,1-.43.762,13.082,13.082,0,0,1-5.844,2.676,13.74,13.74,0,0,1-3.888.156,8.3,8.3,0,0,1-4.662-1.992,9.442,9.442,0,0,1-1.665-1.856,14.184,14.184,0,0,1-2.009-4.578,23.1,23.1,0,0,1-.71-4.7C127.762,35.793,127.713,34.748,127.688,34.154Z" transform="translate(-65.229 -7.073)"/><path class="b" d="M12.779,36.477c.045-.119.09-.234.131-.352.738-2,1.3-4.057,1.9-6.106.193-.66.414-1.307.619-1.963a2.375,2.375,0,0,1,.742-1.09,3.766,3.766,0,0,1,1.279-.783c.488-.168.951-.418,1.427-.627.648-.287,1.292-.57,1.944-.848a2.275,2.275,0,0,1,3.1,1.7c.09.549.115,1.111.164,1.664q.123,1.389.234,2.778c.07.857.139,1.713.2,2.57.086,1.2.16,2.4.238,3.6.037.586.061,1.172.1,1.758.094,1.414.185,2.828.3,4.237.123,1.57.275,3.135.39,4.7.115,1.541.2,3.086.217,4.631a7.839,7.839,0,0,1-.1,1.238,1.71,1.71,0,0,1-1.579,1.52,17.977,17.977,0,0,1-3.637.049c-.131-.012-.258-.02-.39-.033a1.8,1.8,0,0,1-1.411-.885,2.608,2.608,0,0,1-.357-1.18l-.369-4.881q-.123-1.647-.258-3.295c-.016-.213-.057-.426-.094-.635a.8.8,0,0,0-.1-.18c-.082.193-.152.344-.213.5q-.88,2.195-1.759,4.385a7.467,7.467,0,0,1-.636,1.217c-.18.287-.369.316-.648.119a4.217,4.217,0,0,1-.365-.3c-.554-.488-1.054-1.02-1.558-1.557-.652-.693-1.325-1.361-1.989-2.037-.057-.057-.115-.135-.238-.107a.869.869,0,0,0,.012.447c.115.693.234,1.381.357,2.07.164.914.336,1.828.5,2.742a8.661,8.661,0,0,1,.082,1.754,1.634,1.634,0,0,1-.373.988A2.349,2.349,0,0,1,8.9,55.2a22.411,22.411,0,0,1-2.776.012,2.391,2.391,0,0,1-2.182-1.508,4.907,4.907,0,0,1-.3-1.074q-.652-3.35-1.3-6.7C1.871,43.525,1.391,41.111.92,38.7q-.246-1.26-.467-2.533a2.138,2.138,0,0,1,1.013-2.328,6.973,6.973,0,0,1,.64-.365c1.029-.52,2.059-1.045,3.092-1.553a9.972,9.972,0,0,1,1.074-.463A2.633,2.633,0,0,1,7.505,31.3a2.178,2.178,0,0,1,1.206.537,6.2,6.2,0,0,1,.513.525q1.636,1.918,3.268,3.844C12.566,36.313,12.619,36.444,12.779,36.477Z" transform="translate(-0.408 -12.569)"/><path class="b" d="M27.5,106.816c.119.1.226.2.336.291a9.513,9.513,0,0,1,3.026,4.516c.07.234.152.463.238.688a8.9,8.9,0,0,1,.586,3.233c.008,1.2.008,2.406,0,3.606a4.917,4.917,0,0,1-.205,1.312,9.712,9.712,0,0,1-1.095,2.512,5,5,0,0,1-1.185,1.356,4.106,4.106,0,0,1-3.088.865,11.5,11.5,0,0,1-4.843-1.635c-1.23-.75-2.469-1.5-3.7-2.242-.258-.156-.517-.316-.783-.459a2.65,2.65,0,0,1-1.255-1.422,5.755,5.755,0,0,1-.3-1.16c-.394-2.3-.89-4.577-1.357-6.86-.328-1.611-.648-3.225-.972-4.836-.328-1.627-.66-3.254-.984-4.881q-.572-2.84-1.136-5.68a10.36,10.36,0,0,1-.18-1.7,7.232,7.232,0,0,1,.025-.729,1.586,1.586,0,0,1,.59-1.111,2.357,2.357,0,0,1,1.456-.594c.217-.008.435-.02.652-.02,2.53.012,5.064.016,7.594.049a7.761,7.761,0,0,1,5.282,2.07c.148.135.3.275.443.41a8.777,8.777,0,0,1,2.575,4.393,9.89,9.89,0,0,1,.332,2.073,8.184,8.184,0,0,1-.369,2.668,8.049,8.049,0,0,1-1.042,2.254c-.168.25-.332.5-.492.758A2.253,2.253,0,0,0,27.5,106.816ZM20.357,111.2c0,.09,0,.135,0,.177l.5,3.258a2.463,2.463,0,0,0,.053.25.373.373,0,0,0,.283.295,7.692,7.692,0,0,0,.8.181,1.419,1.419,0,0,0,1.185-.414.8.8,0,0,0,.275-.471,5.647,5.647,0,0,0,.07-.639,1.911,1.911,0,0,0-.459-1.348,3.78,3.78,0,0,0-1.378-1.012A3.312,3.312,0,0,0,20.357,111.2ZM18.95,103.39a3.16,3.16,0,0,0,1.238.111,1.382,1.382,0,0,0,1.308-1.676,2.53,2.53,0,0,0-1.115-1.672,1.776,1.776,0,0,0-.513-.221,3.518,3.518,0,0,0-1.206-.1c-.271.021-.41.1-.34.447.2,1,.381,2,.57,2.991A.627.627,0,0,0,18.95,103.39Z" transform="translate(-5.596 -46.861)"/><path class="b" d="M176.319,91.749a12.613,12.613,0,0,1,4.182.717,8.233,8.233,0,0,1,1.185.52,6.759,6.759,0,0,1,.783.533,2.266,2.266,0,0,1,.9,2.2c-.037.41-.119.819-.2,1.225-.148.77-.3,1.545-.459,2.315a8.19,8.19,0,0,1-.271,1.082A2.413,2.413,0,0,1,178.9,101.6c-.148-.086-.291-.188-.435-.279a6.619,6.619,0,0,0-2.091-.91,5.538,5.538,0,0,0-.644-.09,1.092,1.092,0,0,0-.259.016.618.618,0,0,0-.479.959,4.951,4.951,0,0,0,1.365,1.537c.209.152.431.291.644.438a11.142,11.142,0,0,1,4.183,5.188,12.067,12.067,0,0,1,.652,2.573,14.1,14.1,0,0,1,.181,2.91,12.307,12.307,0,0,1-1.05,4.573,8.116,8.116,0,0,1-5.179,4.557,7.716,7.716,0,0,1-2.223.332,9.7,9.7,0,0,1-3.248-.459,10.545,10.545,0,0,1-2.2-1.1,2.615,2.615,0,0,1-.373-.291,2.223,2.223,0,0,1-.771-1.963,29.356,29.356,0,0,0,.139-3,3.016,3.016,0,0,1,.217-1.172,2.387,2.387,0,0,1,3.071-1.352c.516.184,1.025.385,1.541.574.217.078.439.147.661.209a1.058,1.058,0,0,0,.6,0,.908.908,0,0,0,.623-.971,2.144,2.144,0,0,0-.094-.418,3.152,3.152,0,0,0-1-1.479c-.4-.332-.808-.652-1.21-.979l-.7-.578a9.7,9.7,0,0,1-2.858-3.979,11.727,11.727,0,0,1-.853-5.122,13.493,13.493,0,0,1,1.029-4.5,8.812,8.812,0,0,1,1.366-2.234,8.015,8.015,0,0,1,4.5-2.643A8.237,8.237,0,0,1,176.319,91.749Z" transform="translate(-85.228 -46.801)"/><path class="b" d="M180.057,59.751a12.035,12.035,0,0,1-4.137-.639,14.7,14.7,0,0,1-2.707-1.147,2.342,2.342,0,0,1-1.25-2.365c.061-.857.188-1.7.283-2.557a2.628,2.628,0,0,1,.517-1.348,2.26,2.26,0,0,1,2.666-.775,5.129,5.129,0,0,1,.619.3,10.386,10.386,0,0,0,2.846,1.127c.324.07.656.111.984.148a1.067,1.067,0,0,0,.631-.119.8.8,0,0,0,.423-.975,1.827,1.827,0,0,0-.877-1.074c-.226-.127-.468-.229-.693-.352-.673-.361-1.362-.7-2.01-1.1a9.235,9.235,0,0,1-3.416-3.631,8.159,8.159,0,0,1-.91-3.5,9.923,9.923,0,0,1,.181-2.561,8.37,8.37,0,0,1,2.341-4.233,6.991,6.991,0,0,1,3.74-1.865c.5-.09,1-.168,1.5-.246a1.251,1.251,0,0,1,.3-.012,15.134,15.134,0,0,1,3.584.594,10.6,10.6,0,0,1,5.606,4.258,10.135,10.135,0,0,1,.57,1.057,1.445,1.445,0,0,1,.11.963c-.135.7-.279,1.4-.41,2.106a2.407,2.407,0,0,1-2.678,1.918,2.331,2.331,0,0,1-.931-.332c-.254-.16-.5-.336-.742-.52a9.662,9.662,0,0,0-3.338-1.688,4.212,4.212,0,0,0-1.411-.2,1.81,1.81,0,0,0-.468.086.583.583,0,0,0-.422.664.874.874,0,0,0,.078.287,2.813,2.813,0,0,0,1.5,1.533,20.748,20.748,0,0,1,3.285,1.828,8.7,8.7,0,0,1,2.214,2.1,6.948,6.948,0,0,1,1.382,3.6,8.566,8.566,0,0,1-.369,3.348,6.76,6.76,0,0,1-2.219,3.266,8.918,8.918,0,0,1-4.683,1.975C181.189,59.739,180.618,59.726,180.057,59.751Z" transform="translate(-87.772 -16.791)"/><path class="b" d="M60.1,49.2c-.591.016-1.185.041-1.776.045a2.364,2.364,0,0,1-2.411-1.836,5.58,5.58,0,0,1-.16-.971c-.07-.77-.123-1.541-.176-2.311-.082-1.172-.164-2.34-.246-3.512-.033-.484-.07-.971-.1-1.455q-.172-2.551-.34-5.1c-.074-1.127-.131-2.258-.205-3.385-.07-1.041-.148-2.082-.226-3.127-.066-.869-.135-1.742-.205-2.611-.074-.914-.152-1.824-.226-2.738-.037-.426-.07-.856-.1-1.283-.066-.914-.127-1.828-.193-2.742-.012-.172-.037-.34-.057-.512a2.423,2.423,0,0,1,.275-1.414,2.1,2.1,0,0,1,1.021-.955c.824-.381,1.653-.758,2.477-1.139.705-.328,1.415-.656,2.116-.988a3.271,3.271,0,0,1,1.07-.324,2.426,2.426,0,0,1,2.456,1.832,4.156,4.156,0,0,1,.09.635c.041.8.066,1.6.1,2.4q.074,1.715.144,3.43c.037.914.07,1.832.1,2.746.041,1.315.066,2.631.111,3.946.037,1,.09,2,.139,3,.033.656.066,1.315.094,1.971.07,1.545.139,3.086.205,4.631.094,2.246.176,4.492.271,6.733.033.787.045,1.574.131,2.356a2.492,2.492,0,0,1-2.51,2.684c-.623-.008-1.242,0-1.866,0C60.1,49.216,60.1,49.208,60.1,49.2Z" transform="translate(-27.527 -6.613)"/><path class="b" d="M62.89,102.844c.037,2.291.09,4.577.107,6.868.012,1.86.1,3.717.127,5.578,0,.27.021.545.025.816q.1,4.4.205,8.8c.025.988.066,1.975.086,2.963a3.119,3.119,0,0,1-.07.807,2.376,2.376,0,0,1-3.071,1.619c-.709-.25-1.427-.459-2.153-.66a3.645,3.645,0,0,1-.451-.156,2.537,2.537,0,0,1-1.653-2.229c-.037-.356-.041-.713-.057-1.07-.041-1.045-.07-2.09-.123-3.131-.066-1.356-.148-2.713-.226-4.074-.033-.57-.066-1.143-.1-1.713q-.172-2.852-.34-5.7c-.045-.8-.074-1.6-.111-2.4l-.234-4.586c-.037-.685-.07-1.373-.115-2.058-.074-1.143-.152-2.282-.226-3.426-.033-.512-.07-1.029-.1-1.541-.049-.856-.1-1.713-.135-2.574a7.79,7.79,0,0,1,.041-1.115,2.114,2.114,0,0,1,2.091-1.922c1.316-.062,2.633-.037,3.949-.016a2.291,2.291,0,0,1,2.272,2.258c.053,1.127.066,2.258.094,3.389q.068,2.637.135,5.278A.106.106,0,0,1,62.89,102.844Z" transform="translate(-27.838 -46.88)"/><path class="b" d="M123.73,112.2c.017-1.848.066-3.209.193-4.561a31.481,31.481,0,0,1,.9-4.889,19.534,19.534,0,0,1,.972-2.975,11.247,11.247,0,0,1,.857-1.635c.439-.676.861-1.356,1.329-2.012a9.553,9.553,0,0,1,3.99-3.279,12.476,12.476,0,0,1,2.953-.84,8.861,8.861,0,0,1,2.419-.1,7.033,7.033,0,0,1,5.991,4.2,6.486,6.486,0,0,1,.6,3.3c-.061.856-.1,1.713-.156,2.569-.02.344-.053.684-.082,1.025a1.331,1.331,0,0,1-.045.254,1.667,1.667,0,0,1-2.588.955,3.464,3.464,0,0,1-.307-.238c-.595-.479-1.185-.963-1.78-1.438a4.756,4.756,0,0,0-2.062-.951,3.662,3.662,0,0,0-1.968.127,2.082,2.082,0,0,0-.857.565,4.544,4.544,0,0,0-.43.537,8.386,8.386,0,0,0-1.431,3.869,41.378,41.378,0,0,0-.279,4.323c0,.873.037,1.746.086,2.615s.123,1.713.2,2.565c.045.5.09,1,.185,1.492a7.084,7.084,0,0,0,.927,2.348,2.625,2.625,0,0,0,1.984,1.242.647.647,0,0,0,.217,0,.274.274,0,0,0,.242-.217,1.717,1.717,0,0,0,.025-.254c.033-.713.033-1.434.1-2.143.074-.8.037-1.6.057-2.4,0-.07,0-.143,0-.213-.012-.242-.082-.324-.32-.394-.139-.041-.283-.066-.418-.111a1.466,1.466,0,0,1-1.095-1.3,4.758,4.758,0,0,1-.037-.643c.021-1.3.05-2.6.078-3.906a4.121,4.121,0,0,1,.054-.6A1.859,1.859,0,0,1,136,107.54c1.575-.066,3.149-.152,4.724-.221a4.831,4.831,0,0,1,1.169.029,1.666,1.666,0,0,1,1.448,1.631c.02.369-.008.742-.025,1.114-.041.77-.094,1.541-.139,2.316-.078,1.287-.152,2.569-.225,3.856-.033.57-.066,1.143-.094,1.713-.07,1.258-.132,2.516-.21,3.77-.065,1.114-.143,2.225-.221,3.34-.037.557-.09,1.114-.115,1.672a1.175,1.175,0,0,1-.472.922c-.578.455-1.136.93-1.722,1.377a8.6,8.6,0,0,1-3.461,1.619,9.011,9.011,0,0,1-2.629.176,8.619,8.619,0,0,1-1.829-.332,7.72,7.72,0,0,1-2.731-1.545,12.474,12.474,0,0,1-2.883-3.623,22.405,22.405,0,0,1-1.525-3.733,24.17,24.17,0,0,1-.951-4.045c-.082-.582-.143-1.164-.18-1.75C123.833,114.449,123.775,113.076,123.73,112.2Z" transform="translate(-63.213 -46.86)"/></g><g transform="translate(410 329.697)"><path class="c" d="M93.755,20.358c.008-.078.025-.16.029-.238.008-.328.02-.66.02-.988,0-2.262,0-4.524.008-6.786q.024-4.211.074-8.417c0-.529.025-1.057.057-1.586A2.332,2.332,0,0,1,95.621.261a2.29,2.29,0,0,1,1.406.016c.341.115.677.254,1.009.393q.9.381,1.784.787a4.671,4.671,0,0,1,.755.418,2.016,2.016,0,0,1,.848,1.393,4.442,4.442,0,0,1,.053.811q-.068,3.092-.156,6.18c-.045,1.574-.11,3.147-.143,4.721-.049,2.2-.074,4.41-.119,6.61q-.056,2.637-.127,5.278c-.029,1.074-.066,2.147-.095,3.217-.041,1.459-.074,2.918-.119,4.377s-.1,2.918-.143,4.377c-.012.4-.021.8-.033,1.2a4.545,4.545,0,0,1-.152,1.1,2.272,2.272,0,0,1-.406.8,1.867,1.867,0,0,1-1.062.7,7.287,7.287,0,0,1-2.1.23,3.328,3.328,0,0,1-1.521-.459,1.981,1.981,0,0,1-.857-.938c-.349-.8-.71-1.6-1.058-2.4q-3.027-6.959-5.848-13.991a1.149,1.149,0,0,0-.23-.443.63.63,0,0,0-.074.156c-.008.127-.008.258,0,.385.049,2.348.09,4.692.144,7.04.033,1.389.09,2.774.135,4.164.041,1.3.082,2.6.119,3.905a2.866,2.866,0,0,1-.086.893,1.912,1.912,0,0,1-.554.906,2.534,2.534,0,0,1-1.841.725c-.779-.025-1.562-.02-2.341-.029-.115,0-.23-.008-.349-.012A2.384,2.384,0,0,1,80.17,40.5c0-.057,0-.115,0-.172-.037-1.459-.061-2.918-.111-4.377-.061-1.774-.148-3.545-.221-5.319-.037-.873-.07-1.746-.111-2.619-.045-1-.1-2-.144-3-.033-.684-.066-1.373-.094-2.057-.041-.914-.078-1.832-.115-2.746q-.068-1.543-.131-3.09c-.012-.27-.016-.545-.025-.816-.066-2.033-.119-4.061-.2-6.094-.066-1.66-.164-3.315-.254-4.975a2.361,2.361,0,0,1,.55-1.631,2.343,2.343,0,0,1,.8-.643c.968-.488,1.927-.984,2.9-1.467a2.715,2.715,0,0,1,2.186-.176,2.213,2.213,0,0,1,1.419,1.344c1.091,2.787,2.206,5.565,3.309,8.348.242.611.459,1.233.7,1.848.382.959.788,1.906,1.169,2.865.508,1.279,1,2.561,1.5,3.84A1.566,1.566,0,0,0,93.755,20.358Z" transform="translate(-40.309 -0.158)"/><path class="c" d="M84.537,115.726c-.008.188-.021.344-.016.5q.018,1.973.041,3.951.062,4.807.123,9.614a3.315,3.315,0,0,1-.119,1.061,2.3,2.3,0,0,1-2.112,1.639,5.035,5.035,0,0,1-.824-.028c-.66-.086-1.312-.221-1.972-.291a2.52,2.52,0,0,1-2.108-2.385c-.021-.643,0-1.287-.02-1.931-.037-1.4-.09-2.8-.127-4.2-.029-1.143-.045-2.291-.066-3.434-.049-2.8-.094-5.61-.152-8.413-.033-1.643-.09-3.291-.135-4.934-.045-1.66-.074-3.32-.123-4.979-.07-2.275-.148-4.549-.221-6.823a5.315,5.315,0,0,1,.045-1.2,2.3,2.3,0,0,1,2.227-1.93c.664-.012,1.329-.008,2,.008a2.718,2.718,0,0,1,.6.094,1.868,1.868,0,0,1,1.275,1.012c.2.4.381.8.566,1.2,1.907,4.246,3.711,8.536,5.532,12.819.324.762.615,1.541.935,2.311.152.369.328.729.5,1.094a1.5,1.5,0,0,0,.106.164c.119-.032.1-.119.1-.18.021-.615.041-1.229.049-1.844q.068-5.3.127-10.6c.017-1.16.045-2.32.078-3.475.008-.287.045-.57.07-.856a1.479,1.479,0,0,1,.508-1.012,2.541,2.541,0,0,1,1.755-.729c.926,0,1.853,0,2.776,0a2.146,2.146,0,0,1,.845.168,2.119,2.119,0,0,1,1.332,1.672,3.633,3.633,0,0,1,.05.6c0,2.532.02,5.065,0,7.6-.028,3.619-.09,7.242-.135,10.86q-.061,5.108-.123,10.217c-.033,2.348-.078,4.692-.111,7.04a2.814,2.814,0,0,1-.213,1.131,2.3,2.3,0,0,1-.976,1.118,1.8,1.8,0,0,1-.779.242c-.652.037-1.3.07-1.952.1a4.512,4.512,0,0,1-.476-.012,1.808,1.808,0,0,1-1.48-.84,4.478,4.478,0,0,1-.324-.607c-2.03-4.365-3.936-8.782-5.884-13.183-.3-.668-.586-1.34-.886-2C84.77,115.927,84.754,115.779,84.537,115.726Z" transform="translate(-39.258 -46.895)"/><path class="c" d="M127.688,34.154c.017-2.024.078-3.594.234-5.164a20.311,20.311,0,0,1,.775-3.951c.266-.861.488-1.738.775-2.59a14.731,14.731,0,0,1,3.629-5.881,9.659,9.659,0,0,1,5.24-2.66,10.526,10.526,0,0,1,1.9-.172,9.265,9.265,0,0,1,4.019.922,12.976,12.976,0,0,1,2.518,1.594,7.021,7.021,0,0,1,2.629,4.639,7.261,7.261,0,0,1-.008,1.885c-.131,1.135-.263,2.274-.4,3.41a2.68,2.68,0,0,1-.1.5,1.513,1.513,0,0,1-1.119,1.09,3.584,3.584,0,0,1-.554.111,1.793,1.793,0,0,1-1.559-.594c-.27-.3-.533-.6-.8-.906a9.865,9.865,0,0,0-1.693-1.533,5.892,5.892,0,0,0-2.407-1.029,3.337,3.337,0,0,0-1.21,0,2.589,2.589,0,0,0-1.456.877,6.2,6.2,0,0,0-1.083,1.848,12.237,12.237,0,0,0-.615,2.406,34.742,34.742,0,0,0-.369,3.8,28.638,28.638,0,0,0,.029,3.3,11.092,11.092,0,0,0,.98,3.934,5.063,5.063,0,0,0,.623,1.029,2.338,2.338,0,0,0,.906.713c.2.086.394.176.6.254s.328.008.357-.225c.028-.213.045-.426.066-.639.07-.7.135-1.393.2-2.094.033-.328.078-.652.119-.979.008-.057.025-.111.028-.168.045-.422.1-.549-.43-.729a1.882,1.882,0,0,1-1.239-1.234,2.3,2.3,0,0,1-.1-.975c.094-.984.222-1.963.242-2.951a2.4,2.4,0,0,1,.115-.676,1.967,1.967,0,0,1,1.726-1.422,4.653,4.653,0,0,1,1.169.029c.763.078,1.525.164,2.288.238.951.09,1.9.164,2.85.262a2.215,2.215,0,0,1,1.932,2.315c-.028.414-.094.824-.135,1.238-.086.824-.164,1.652-.25,2.475q-.154,1.537-.312,3.074c-.095.9-.189,1.791-.3,2.688-.164,1.393-.341,2.783-.5,4.176a1.078,1.078,0,0,1-.43.762,13.082,13.082,0,0,1-5.844,2.676,13.74,13.74,0,0,1-3.888.156,8.3,8.3,0,0,1-4.662-1.992,9.442,9.442,0,0,1-1.665-1.856,14.184,14.184,0,0,1-2.009-4.578,23.1,23.1,0,0,1-.71-4.7C127.762,35.793,127.713,34.748,127.688,34.154Z" transform="translate(-65.229 -7.073)"/><path class="c" d="M12.779,36.477c.045-.119.09-.234.131-.352.738-2,1.3-4.057,1.9-6.106.193-.66.414-1.307.619-1.963a2.375,2.375,0,0,1,.742-1.09,3.766,3.766,0,0,1,1.279-.783c.488-.168.951-.418,1.427-.627.648-.287,1.292-.57,1.944-.848a2.275,2.275,0,0,1,3.1,1.7c.09.549.115,1.111.164,1.664q.123,1.389.234,2.778c.07.857.139,1.713.2,2.57.086,1.2.16,2.4.238,3.6.037.586.061,1.172.1,1.758.094,1.414.185,2.828.3,4.237.123,1.57.275,3.135.39,4.7.115,1.541.2,3.086.217,4.631a7.839,7.839,0,0,1-.1,1.238,1.71,1.71,0,0,1-1.579,1.52,17.977,17.977,0,0,1-3.637.049c-.131-.012-.258-.02-.39-.033a1.8,1.8,0,0,1-1.411-.885,2.608,2.608,0,0,1-.357-1.18l-.369-4.881q-.123-1.647-.258-3.295c-.016-.213-.057-.426-.094-.635a.8.8,0,0,0-.1-.18c-.082.193-.152.344-.213.5q-.88,2.195-1.759,4.385a7.467,7.467,0,0,1-.636,1.217c-.18.287-.369.316-.648.119a4.217,4.217,0,0,1-.365-.3c-.554-.488-1.054-1.02-1.558-1.557-.652-.693-1.325-1.361-1.989-2.037-.057-.057-.115-.135-.238-.107a.869.869,0,0,0,.012.447c.115.693.234,1.381.357,2.07.164.914.336,1.828.5,2.742a8.661,8.661,0,0,1,.082,1.754,1.634,1.634,0,0,1-.373.988A2.349,2.349,0,0,1,8.9,55.2a22.411,22.411,0,0,1-2.776.012,2.391,2.391,0,0,1-2.182-1.508,4.907,4.907,0,0,1-.3-1.074q-.652-3.35-1.3-6.7C1.871,43.525,1.391,41.111.92,38.7q-.246-1.26-.467-2.533a2.138,2.138,0,0,1,1.013-2.328,6.973,6.973,0,0,1,.64-.365c1.029-.52,2.059-1.045,3.092-1.553a9.972,9.972,0,0,1,1.074-.463A2.633,2.633,0,0,1,7.505,31.3a2.178,2.178,0,0,1,1.206.537,6.2,6.2,0,0,1,.513.525q1.636,1.918,3.268,3.844C12.566,36.313,12.619,36.444,12.779,36.477Z" transform="translate(-0.408 -12.569)"/><path class="c" d="M27.5,106.816c.119.1.226.2.336.291a9.513,9.513,0,0,1,3.026,4.516c.07.234.152.463.238.688a8.9,8.9,0,0,1,.586,3.233c.008,1.2.008,2.406,0,3.606a4.917,4.917,0,0,1-.205,1.312,9.712,9.712,0,0,1-1.095,2.512,5,5,0,0,1-1.185,1.356,4.106,4.106,0,0,1-3.088.865,11.5,11.5,0,0,1-4.843-1.635c-1.23-.75-2.469-1.5-3.7-2.242-.258-.156-.517-.316-.783-.459a2.65,2.65,0,0,1-1.255-1.422,5.755,5.755,0,0,1-.3-1.16c-.394-2.3-.89-4.577-1.357-6.86-.328-1.611-.648-3.225-.972-4.836-.328-1.627-.66-3.254-.984-4.881q-.572-2.84-1.136-5.68a10.36,10.36,0,0,1-.18-1.7,7.232,7.232,0,0,1,.025-.729,1.586,1.586,0,0,1,.59-1.111,2.357,2.357,0,0,1,1.456-.594c.217-.008.435-.02.652-.02,2.53.012,5.064.016,7.594.049a7.761,7.761,0,0,1,5.282,2.07c.148.135.3.275.443.41a8.777,8.777,0,0,1,2.575,4.393,9.89,9.89,0,0,1,.332,2.073,8.184,8.184,0,0,1-.369,2.668,8.049,8.049,0,0,1-1.042,2.254c-.168.25-.332.5-.492.758A2.253,2.253,0,0,0,27.5,106.816ZM20.357,111.2c0,.09,0,.135,0,.177l.5,3.258a2.463,2.463,0,0,0,.053.25.373.373,0,0,0,.283.295,7.692,7.692,0,0,0,.8.181,1.419,1.419,0,0,0,1.185-.414.8.8,0,0,0,.275-.471,5.647,5.647,0,0,0,.07-.639,1.911,1.911,0,0,0-.459-1.348,3.78,3.78,0,0,0-1.378-1.012A3.312,3.312,0,0,0,20.357,111.2ZM18.95,103.39a3.16,3.16,0,0,0,1.238.111,1.382,1.382,0,0,0,1.308-1.676,2.53,2.53,0,0,0-1.115-1.672,1.776,1.776,0,0,0-.513-.221,3.518,3.518,0,0,0-1.206-.1c-.271.021-.41.1-.34.447.2,1,.381,2,.57,2.991A.627.627,0,0,0,18.95,103.39Z" transform="translate(-5.596 -46.861)"/><path class="c" d="M176.319,91.749a12.613,12.613,0,0,1,4.182.717,8.233,8.233,0,0,1,1.185.52,6.759,6.759,0,0,1,.783.533,2.266,2.266,0,0,1,.9,2.2c-.037.41-.119.819-.2,1.225-.148.77-.3,1.545-.459,2.315a8.19,8.19,0,0,1-.271,1.082A2.413,2.413,0,0,1,178.9,101.6c-.148-.086-.291-.188-.435-.279a6.619,6.619,0,0,0-2.091-.91,5.538,5.538,0,0,0-.644-.09,1.092,1.092,0,0,0-.259.016.618.618,0,0,0-.479.959,4.951,4.951,0,0,0,1.365,1.537c.209.152.431.291.644.438a11.142,11.142,0,0,1,4.183,5.188,12.067,12.067,0,0,1,.652,2.573,14.1,14.1,0,0,1,.181,2.91,12.307,12.307,0,0,1-1.05,4.573,8.116,8.116,0,0,1-5.179,4.557,7.716,7.716,0,0,1-2.223.332,9.7,9.7,0,0,1-3.248-.459,10.545,10.545,0,0,1-2.2-1.1,2.615,2.615,0,0,1-.373-.291,2.223,2.223,0,0,1-.771-1.963,29.356,29.356,0,0,0,.139-3,3.016,3.016,0,0,1,.217-1.172,2.387,2.387,0,0,1,3.071-1.352c.516.184,1.025.385,1.541.574.217.078.439.147.661.209a1.058,1.058,0,0,0,.6,0,.908.908,0,0,0,.623-.971,2.144,2.144,0,0,0-.094-.418,3.152,3.152,0,0,0-1-1.479c-.4-.332-.808-.652-1.21-.979l-.7-.578a9.7,9.7,0,0,1-2.858-3.979,11.727,11.727,0,0,1-.853-5.122,13.493,13.493,0,0,1,1.029-4.5,8.812,8.812,0,0,1,1.366-2.234,8.015,8.015,0,0,1,4.5-2.643A8.237,8.237,0,0,1,176.319,91.749Z" transform="translate(-85.228 -46.801)"/><path class="c" d="M180.057,59.751a12.035,12.035,0,0,1-4.137-.639,14.7,14.7,0,0,1-2.707-1.147,2.342,2.342,0,0,1-1.25-2.365c.061-.857.188-1.7.283-2.557a2.628,2.628,0,0,1,.517-1.348,2.26,2.26,0,0,1,2.666-.775,5.129,5.129,0,0,1,.619.3,10.386,10.386,0,0,0,2.846,1.127c.324.07.656.111.984.148a1.067,1.067,0,0,0,.631-.119.8.8,0,0,0,.423-.975,1.827,1.827,0,0,0-.877-1.074c-.226-.127-.468-.229-.693-.352-.673-.361-1.362-.7-2.01-1.1a9.235,9.235,0,0,1-3.416-3.631,8.159,8.159,0,0,1-.91-3.5,9.923,9.923,0,0,1,.181-2.561,8.37,8.37,0,0,1,2.341-4.233,6.991,6.991,0,0,1,3.74-1.865c.5-.09,1-.168,1.5-.246a1.251,1.251,0,0,1,.3-.012,15.134,15.134,0,0,1,3.584.594,10.6,10.6,0,0,1,5.606,4.258,10.135,10.135,0,0,1,.57,1.057,1.445,1.445,0,0,1,.11.963c-.135.7-.279,1.4-.41,2.106a2.407,2.407,0,0,1-2.678,1.918,2.331,2.331,0,0,1-.931-.332c-.254-.16-.5-.336-.742-.52a9.662,9.662,0,0,0-3.338-1.688,4.212,4.212,0,0,0-1.411-.2,1.81,1.81,0,0,0-.468.086.583.583,0,0,0-.422.664.874.874,0,0,0,.078.287,2.813,2.813,0,0,0,1.5,1.533,20.748,20.748,0,0,1,3.285,1.828,8.7,8.7,0,0,1,2.214,2.1,6.948,6.948,0,0,1,1.382,3.6,8.566,8.566,0,0,1-.369,3.348,6.76,6.76,0,0,1-2.219,3.266,8.918,8.918,0,0,1-4.683,1.975C181.189,59.739,180.618,59.726,180.057,59.751Z" transform="translate(-87.772 -16.791)"/><path class="c" d="M60.1,49.2c-.591.016-1.185.041-1.776.045a2.364,2.364,0,0,1-2.411-1.836,5.58,5.58,0,0,1-.16-.971c-.07-.77-.123-1.541-.176-2.311-.082-1.172-.164-2.34-.246-3.512-.033-.484-.07-.971-.1-1.455q-.172-2.551-.34-5.1c-.074-1.127-.131-2.258-.205-3.385-.07-1.041-.148-2.082-.226-3.127-.066-.869-.135-1.742-.205-2.611-.074-.914-.152-1.824-.226-2.738-.037-.426-.07-.856-.1-1.283-.066-.914-.127-1.828-.193-2.742-.012-.172-.037-.34-.057-.512a2.423,2.423,0,0,1,.275-1.414,2.1,2.1,0,0,1,1.021-.955c.824-.381,1.653-.758,2.477-1.139.705-.328,1.415-.656,2.116-.988a3.271,3.271,0,0,1,1.07-.324,2.426,2.426,0,0,1,2.456,1.832,4.156,4.156,0,0,1,.09.635c.041.8.066,1.6.1,2.4q.074,1.715.144,3.43c.037.914.07,1.832.1,2.746.041,1.315.066,2.631.111,3.946.037,1,.09,2,.139,3,.033.656.066,1.315.094,1.971.07,1.545.139,3.086.205,4.631.094,2.246.176,4.492.271,6.733.033.787.045,1.574.131,2.356a2.492,2.492,0,0,1-2.51,2.684c-.623-.008-1.242,0-1.866,0C60.1,49.216,60.1,49.208,60.1,49.2Z" transform="translate(-27.527 -6.613)"/><path class="c" d="M62.89,102.844c.037,2.291.09,4.577.107,6.868.012,1.86.1,3.717.127,5.578,0,.27.021.545.025.816q.1,4.4.205,8.8c.025.988.066,1.975.086,2.963a3.119,3.119,0,0,1-.07.807,2.376,2.376,0,0,1-3.071,1.619c-.709-.25-1.427-.459-2.153-.66a3.645,3.645,0,0,1-.451-.156,2.537,2.537,0,0,1-1.653-2.229c-.037-.356-.041-.713-.057-1.07-.041-1.045-.07-2.09-.123-3.131-.066-1.356-.148-2.713-.226-4.074-.033-.57-.066-1.143-.1-1.713q-.172-2.852-.34-5.7c-.045-.8-.074-1.6-.111-2.4l-.234-4.586c-.037-.685-.07-1.373-.115-2.058-.074-1.143-.152-2.282-.226-3.426-.033-.512-.07-1.029-.1-1.541-.049-.856-.1-1.713-.135-2.574a7.79,7.79,0,0,1,.041-1.115,2.114,2.114,0,0,1,2.091-1.922c1.316-.062,2.633-.037,3.949-.016a2.291,2.291,0,0,1,2.272,2.258c.053,1.127.066,2.258.094,3.389q.068,2.637.135,5.278A.106.106,0,0,1,62.89,102.844Z" transform="translate(-27.838 -46.88)"/><path class="c" d="M123.73,112.2c.017-1.848.066-3.209.193-4.561a31.481,31.481,0,0,1,.9-4.889,19.534,19.534,0,0,1,.972-2.975,11.247,11.247,0,0,1,.857-1.635c.439-.676.861-1.356,1.329-2.012a9.553,9.553,0,0,1,3.99-3.279,12.476,12.476,0,0,1,2.953-.84,8.861,8.861,0,0,1,2.419-.1,7.033,7.033,0,0,1,5.991,4.2,6.486,6.486,0,0,1,.6,3.3c-.061.856-.1,1.713-.156,2.569-.02.344-.053.684-.082,1.025a1.331,1.331,0,0,1-.045.254,1.667,1.667,0,0,1-2.588.955,3.464,3.464,0,0,1-.307-.238c-.595-.479-1.185-.963-1.78-1.438a4.756,4.756,0,0,0-2.062-.951,3.662,3.662,0,0,0-1.968.127,2.082,2.082,0,0,0-.857.565,4.544,4.544,0,0,0-.43.537,8.386,8.386,0,0,0-1.431,3.869,41.378,41.378,0,0,0-.279,4.323c0,.873.037,1.746.086,2.615s.123,1.713.2,2.565c.045.5.09,1,.185,1.492a7.084,7.084,0,0,0,.927,2.348,2.625,2.625,0,0,0,1.984,1.242.647.647,0,0,0,.217,0,.274.274,0,0,0,.242-.217,1.717,1.717,0,0,0,.025-.254c.033-.713.033-1.434.1-2.143.074-.8.037-1.6.057-2.4,0-.07,0-.143,0-.213-.012-.242-.082-.324-.32-.394-.139-.041-.283-.066-.418-.111a1.466,1.466,0,0,1-1.095-1.3,4.758,4.758,0,0,1-.037-.643c.021-1.3.05-2.6.078-3.906a4.121,4.121,0,0,1,.054-.6A1.859,1.859,0,0,1,136,107.54c1.575-.066,3.149-.152,4.724-.221a4.831,4.831,0,0,1,1.169.029,1.666,1.666,0,0,1,1.448,1.631c.02.369-.008.742-.025,1.114-.041.77-.094,1.541-.139,2.316-.078,1.287-.152,2.569-.225,3.856-.033.57-.066,1.143-.094,1.713-.07,1.258-.132,2.516-.21,3.77-.065,1.114-.143,2.225-.221,3.34-.037.557-.09,1.114-.115,1.672a1.175,1.175,0,0,1-.472.922c-.578.455-1.136.93-1.722,1.377a8.6,8.6,0,0,1-3.461,1.619,9.011,9.011,0,0,1-2.629.176,8.619,8.619,0,0,1-1.829-.332,7.72,7.72,0,0,1-2.731-1.545,12.474,12.474,0,0,1-2.883-3.623,22.405,22.405,0,0,1-1.525-3.733,24.17,24.17,0,0,1-.951-4.045c-.082-.582-.143-1.164-.18-1.75C123.833,114.449,123.775,113.076,123.73,112.2Z" transform="translate(-63.213 -46.86)"/></g></g></svg>